<?xml version="1.0" encoding="UTF-8" standalone="no"?>
<!DOCTYPE svg PUBLIC "-//W3C//DTD SVG 1.1//EN" "http://www.w3.org/Graphics/SVG/1.1/DTD/svg11.dtd">
<svg width="100%" height="100%" viewBox="0 0 512 512" version="1.1" xmlns="http://www.w3.org/2000/svg" xmlns:xlink="http://www.w3.org/1999/xlink" xml:space="preserve" xmlns:serif="http://www.serif.com/" style="fill-rule:evenodd;clip-rule:evenodd;stroke-linejoin:round;stroke-miterlimit:2;">
    <g id="base">
        <circle cx="256" cy="256" r="256" style="fill:white;"/>
        <path d="M256,0C397.29,0 512,114.71 512,256C512,397.29 397.29,512 256,512C114.71,512 0,397.29 0,256C0,114.71 114.71,0 256,0ZM256,40C375.214,40 472,136.786 472,256C472,375.214 375.214,472 256,472C136.786,472 40,375.214 40,256C40,136.786 136.786,40 256,40Z"/>
    </g>
    <g transform="matrix(0.829586,0,0,1.1084,34.1498,-13.4648)">
        <path d="M399.213,337.45C391.15,291.206 323.629,256 243,256C162.371,256 94.85,291.206 86.787,337.45L399.213,337.45Z"/>
        <path d="M399.213,355.494C406.151,355.494 412.752,353.257 417.33,349.355C421.907,345.453 424.016,340.264 423.119,335.115C413.716,281.185 337.029,237.956 243,237.956C148.971,237.956 72.284,281.185 62.881,335.115C61.984,340.264 64.093,345.453 68.67,349.355C73.248,353.257 79.849,355.494 86.787,355.494L399.213,355.494ZM399.213,337.45C391.15,291.206 323.629,256 243,256C162.371,256 94.85,291.206 86.787,337.45L399.213,337.45Z" style="fill:white;"/>
    </g>
    <g transform="matrix(1.1084,0,0,1.1084,-34.711,-23.4404)">
        <circle cx="244" cy="189" r="67"/>
        <path d="M244,117.489C204.532,117.489 172.489,149.532 172.489,189C172.489,228.468 204.532,260.511 244,260.511C283.468,260.511 315.511,228.468 315.511,189C315.511,149.532 283.468,117.489 244,117.489ZM244,122C280.978,122 311,152.022 311,189C311,225.978 280.978,256 244,256C207.022,256 177,225.978 177,189C177,152.022 207.022,122 244,122Z" style="fill:white;"/>
    </g>
    <g transform="matrix(1.42522,0,0,1.42522,-189.313,-61.3599)">
        <g id="XMLID_510_" transform="matrix(0.169656,0,0,0.169656,302.436,188.137)">
            <path d="M157.576,800L642.424,800C662.507,800 678.788,783.719 678.788,763.636L678.788,351.515C678.788,331.433 662.507,315.152 642.424,315.152L606.061,315.152L606.061,206.061C606.061,92.439 513.622,0 400,0C286.378,0 193.939,92.439 193.939,206.061L193.939,315.152L157.576,315.152C137.493,315.152 121.212,331.433 121.212,351.515L121.212,763.636C121.212,783.719 137.493,800 157.576,800ZM316.295,201.549C316.295,155.394 353.845,117.844 400,117.844C446.155,117.844 483.705,155.394 483.705,201.549L483.705,315.527L316.295,315.527L316.295,201.549Z" style="fill-rule:nonzero;"/>
            <path d="M157.576,831.243L642.424,831.243C679.761,831.243 710.031,800.973 710.031,763.636L710.031,351.515C710.031,314.178 679.761,283.909 642.424,283.909C642.424,283.909 637.303,283.909 637.303,283.909C637.304,283.909 637.304,206.061 637.304,206.061C637.304,75.211 530.849,-31.243 400,-31.243C269.151,-31.243 162.696,75.211 162.696,206.061L162.696,283.909C162.697,283.909 157.576,283.909 157.576,283.909C120.239,283.909 89.969,314.178 89.969,351.515C89.969,351.515 89.969,763.636 89.969,763.636C89.969,800.973 120.239,831.243 157.576,831.243ZM157.576,800L642.424,800C662.507,800 678.788,783.719 678.788,763.636L678.788,351.515C678.788,331.433 662.507,315.152 642.424,315.152L606.061,315.152L606.061,206.061C606.061,92.439 513.622,0 400,0C286.378,0 193.939,92.439 193.939,206.061L193.939,315.152L157.576,315.152C137.493,315.152 121.212,331.433 121.212,351.515L121.212,763.636C121.212,783.719 137.493,800 157.576,800ZM316.295,201.549C316.295,155.394 353.845,117.844 400,117.844C446.155,117.844 483.705,155.394 483.705,201.549L483.705,315.527L316.295,315.527L316.295,201.549ZM347.538,201.549C347.538,172.621 371.072,149.087 400,149.087C428.928,149.087 452.462,172.621 452.462,201.549L452.462,284.285C452.462,284.285 347.538,284.285 347.538,284.285C347.538,284.285 347.538,201.549 347.538,201.549Z" style="fill:white;"/>
        </g>
        <g id="XMLID_510_1" serif:id="XMLID_510_" transform="matrix(0.169656,0,0,0.169656,302.436,188.137)">
            <path d="M436.364,569.663L436.364,618.182C436.364,638.264 420.082,654.545 400,654.545C379.918,654.545 363.636,638.264 363.636,618.182L363.636,569.663C348.926,558.596 339.394,540.999 339.394,521.212C339.394,487.794 366.582,460.606 400,460.606C433.418,460.606 460.606,487.794 460.606,521.212C460.606,540.999 451.074,558.596 436.364,569.663Z" style="fill:white;fill-rule:nonzero;"/>
        </g>
    </g>
</svg>
