<?xml version="1.0" encoding="UTF-8" standalone="no"?>
<!DOCTYPE svg PUBLIC "-//W3C//DTD SVG 1.1//EN" "http://www.w3.org/Graphics/SVG/1.1/DTD/svg11.dtd">
<svg width="100%" height="100%" viewBox="0 0 512 512" version="1.1" xmlns="http://www.w3.org/2000/svg" xmlns:xlink="http://www.w3.org/1999/xlink" xml:space="preserve" xmlns:serif="http://www.serif.com/" style="fill-rule:evenodd;clip-rule:evenodd;stroke-linejoin:round;stroke-miterlimit:2;">
    <g id="base">
        <circle cx="256" cy="256" r="256" style="fill:white;"/>
        <path d="M256,0C397.29,0 512,114.71 512,256C512,397.29 397.29,512 256,512C114.71,512 0,397.29 0,256C0,114.71 114.71,0 256,0ZM256,40C375.214,40 472,136.786 472,256C472,375.214 375.214,472 256,472C136.786,472 40,375.214 40,256C40,136.786 136.786,40 256,40Z"/>
    </g>
    <g transform="matrix(0.679826,0,0,0.679826,-16.1449,-17.5475)">
        <path d="M602.821,237.726C602.775,230.429 596.771,224.444 589.474,224.421L295.832,224.421C288.534,224.467 282.549,230.471 282.526,237.768L282.526,312.632L211.158,312.632C203.86,312.654 197.856,318.639 197.811,325.937L197.811,566.989C197.833,574.303 203.844,580.314 211.158,580.337L504.758,580.337C512.071,580.314 518.082,574.303 518.105,566.989L518.105,492.126L589.474,492.126C596.787,492.103 602.798,486.092 602.821,478.779L602.821,237.726ZM295.874,492.084L484.758,492.084L484.758,546.947L231.158,546.947L231.158,383.242L282.526,383.242L282.526,478.737C282.549,486.05 288.56,492.061 295.874,492.084ZM315.832,295.032L569.474,295.032L569.474,458.737L315.832,458.737L315.832,295.032Z" style="fill-rule:nonzero;"/>
    </g>
</svg>
