<?xml version="1.0" encoding="UTF-8" standalone="no"?>
<!DOCTYPE svg PUBLIC "-//W3C//DTD SVG 1.1//EN" "http://www.w3.org/Graphics/SVG/1.1/DTD/svg11.dtd">
<svg width="100%" height="100%" viewBox="0 0 512 512" version="1.1" xmlns="http://www.w3.org/2000/svg" xmlns:xlink="http://www.w3.org/1999/xlink" xml:space="preserve" xmlns:serif="http://www.serif.com/" style="fill-rule:evenodd;clip-rule:evenodd;stroke-linejoin:round;stroke-miterlimit:2;">
    <g transform="matrix(5.12,0,0,5.12,0,0)">
        <path d="M31.055,57.918C31.07,57.858 31.096,57.802 31.112,57.742C31.2,57.415 31.303,57.094 31.423,56.779C31.45,56.708 31.471,56.636 31.499,56.565C31.652,56.188 31.83,55.821 32.028,55.464C32.078,55.373 32.135,55.287 32.188,55.198C32.351,54.924 32.526,54.658 32.716,54.399C32.786,54.303 32.855,54.207 32.928,54.114C33.184,53.787 33.454,53.469 33.753,53.171C35.689,51.235 38.262,50.169 41.001,50.169C43.74,50.169 46.313,51.235 48.249,53.172C48.547,53.47 48.816,53.787 49.072,54.113C49.147,54.208 49.216,54.306 49.287,54.403C49.475,54.66 49.649,54.924 49.81,55.196C49.864,55.287 49.922,55.375 49.973,55.467C50.17,55.823 50.348,56.189 50.5,56.565C50.529,56.636 50.55,56.711 50.578,56.783C50.697,57.097 50.8,57.418 50.888,57.743C50.904,57.803 50.93,57.859 50.945,57.919L60.5,57.919L60.5,46.752L49.5,46.752C48.119,46.752 47,45.633 47,44.252L47,33.252L21.5,33.252L21.5,57.918L31.055,57.918Z" style="fill:none;fill-rule:nonzero;"/>
    </g>
    <g transform="matrix(5.12,0,0,5.12,0,0)">
        <path d="M65.5,62.918L65.5,75.748L69.5,75.748L69.5,62.918L65.5,62.918Z" style="fill:none;fill-rule:nonzero;"/>
    </g>
    <g transform="matrix(5.12,0,0,5.12,0,0)">
        <path d="M50.945,62.918C50.93,62.978 50.904,63.034 50.888,63.093C50.8,63.42 50.697,63.741 50.577,64.056C50.55,64.127 50.529,64.2 50.5,64.27C50.347,64.647 50.169,65.013 49.971,65.37C49.921,65.461 49.864,65.548 49.811,65.637C49.648,65.91 49.473,66.176 49.284,66.435C49.214,66.531 49.145,66.628 49.071,66.722C48.815,67.049 48.545,67.367 48.247,67.665C46.312,69.601 43.738,70.667 40.999,70.667C40.669,70.667 40.344,70.648 40.023,70.618C39.92,70.608 39.819,70.591 39.716,70.578C39.499,70.551 39.283,70.52 39.07,70.479C38.952,70.456 38.837,70.43 38.721,70.403C38.526,70.359 38.333,70.309 38.142,70.254C38.025,70.22 37.909,70.185 37.794,70.147C37.604,70.084 37.417,70.014 37.232,69.941C37.127,69.899 37.021,69.86 36.917,69.814C36.708,69.723 36.505,69.622 36.303,69.518C36.23,69.48 36.155,69.447 36.083,69.408C35.814,69.26 35.553,69.102 35.299,68.931C35.238,68.89 35.181,68.844 35.121,68.801C34.93,68.667 34.743,68.529 34.562,68.383C34.476,68.313 34.393,68.239 34.309,68.166C34.161,68.038 34.015,67.907 33.874,67.771C33.788,67.687 33.704,67.602 33.621,67.516C33.489,67.379 33.361,67.238 33.237,67.093C33.159,67.003 33.082,66.913 33.008,66.821C32.882,66.663 32.762,66.501 32.645,66.336C32.584,66.25 32.521,66.167 32.462,66.079C32.31,65.85 32.167,65.615 32.033,65.373C32.018,65.345 32,65.32 31.985,65.292C31.838,65.022 31.706,64.743 31.583,64.459C31.545,64.371 31.514,64.281 31.479,64.192C31.399,63.991 31.322,63.788 31.255,63.581C31.22,63.472 31.189,63.361 31.157,63.251C31.125,63.139 31.086,63.031 31.058,62.918L21.5,62.918L21.5,84.748L60.5,84.748L60.5,62.918L50.945,62.918ZM29.1,80.77C28.63,81.23 27.99,81.5 27.33,81.5C26.67,81.5 26.03,81.229 25.56,80.77C25.1,80.3 24.83,79.66 24.83,79C24.83,78.34 25.1,77.7 25.56,77.229C26.49,76.299 28.17,76.299 29.1,77.229C29.56,77.7 29.83,78.339 29.83,79C29.83,79.661 29.56,80.3 29.1,80.77Z" style="fill:none;fill-rule:nonzero;"/>
    </g>
    <g transform="matrix(5.12,0,0,5.12,0,0)">
        <path d="M37.288,56.706C36.296,57.697 35.75,59.016 35.75,60.418C35.75,63.313 38.105,65.668 41,65.668C42.403,65.668 43.721,65.122 44.712,64.131C45.704,63.139 46.25,61.82 46.25,60.418C46.25,59.016 45.704,57.697 44.712,56.707C43.72,55.714 42.402,55.168 41,55.168C39.598,55.168 38.279,55.714 37.288,56.706Z" style="fill:none;fill-rule:nonzero;"/>
    </g>
    <g transform="matrix(5.12,0,0,5.12,0,0)">
        <path d="M52,36.787L52,41.752L56.964,41.752L52,36.787Z" style="fill:none;fill-rule:nonzero;"/>
    </g>
    <g transform="matrix(5.12,0,0,5.12,0,0)">
        <path d="M49.975,28.299C49.98,28.3 49.985,28.299 49.99,28.3C50.201,28.342 50.401,28.421 50.594,28.515C50.644,28.539 50.691,28.565 50.739,28.593C50.929,28.702 51.11,28.827 51.268,28.984L64.768,42.484C64.926,42.642 65.051,42.823 65.16,43.014C65.187,43.061 65.212,43.108 65.236,43.156C65.331,43.349 65.41,43.55 65.452,43.763C65.452,43.765 65.452,43.767 65.453,43.77C65.484,43.928 65.501,44.089 65.501,44.252L65.501,57.919L69.501,57.919L69.501,24.252L30.5,24.252L30.5,28.252L49.5,28.252C49.661,28.252 49.82,28.269 49.975,28.299Z" style="fill:none;fill-rule:nonzero;"/>
    </g>
    <g transform="matrix(5.12,0,0,5.12,0,0)">
        <path d="M16.5,50.499C15.52,50.509 14.606,50.892 13.925,51.579C13.213,52.285 12.83,53.214 12.83,54.209C12.83,56.241 14.473,57.897 16.5,57.919L16.5,50.499Z" style="fill:none;fill-rule:nonzero;"/>
    </g>
    <g transform="matrix(5.12,0,0,5.12,0,0)">
        <path d="M83.5,50.499L83.5,57.918C84.481,57.907 85.394,57.525 86.075,56.839C86.787,56.133 87.17,55.204 87.17,54.208C87.17,52.176 85.527,50.521 83.5,50.499Z" style="fill:none;fill-rule:nonzero;"/>
    </g>
    <g transform="matrix(5.12,0,0,5.12,0,0)">
        <rect x="74.5" y="62.918" width="4" height="3.83" style="fill:none;"/>
    </g>
    <g transform="matrix(5.12,0,0,5.12,0,0)">
        <path d="M74.5,21.752L74.5,57.919L78.5,57.919L78.5,15.252L39.5,15.252L39.5,19.252L72,19.252C73.381,19.252 74.5,20.371 74.5,21.752Z" style="fill:none;fill-rule:nonzero;"/>
    </g>
    <g transform="matrix(5.12,0,0,5.12,0,0)">
        <path d="M83.5,45.501L83.5,12.752C83.5,11.371 82.381,10.252 81,10.252L37,10.252C35.619,10.252 34.5,11.371 34.5,12.752L34.5,19.252L28,19.252C26.619,19.252 25.5,20.371 25.5,21.752L25.5,28.252L19,28.252C17.619,28.252 16.5,29.371 16.5,30.752L16.5,45.501C14.176,45.511 12.001,46.418 10.39,48.043C8.74,49.679 7.83,51.869 7.83,54.208C7.83,58.997 11.716,62.894 16.5,62.916L16.5,87.248C16.5,88.629 17.619,89.748 19,89.748L63,89.748C64.381,89.748 65.5,88.629 65.5,87.248L65.5,80.748L72,80.748C73.381,80.748 74.5,79.629 74.5,78.248L74.5,71.748L81,71.748C82.381,71.748 83.5,70.629 83.5,69.248L83.5,62.916C85.825,62.906 87.999,61.999 89.61,60.374C91.26,58.737 92.17,56.548 92.17,54.208C92.17,49.419 88.284,45.523 83.5,45.501ZM39.5,15.252L78.5,15.252L78.5,57.918L74.5,57.918L74.5,21.752C74.5,20.371 73.381,19.252 72,19.252L39.5,19.252L39.5,15.252ZM30.499,24.252L69.5,24.252L69.5,57.919L65.5,57.919L65.5,44.252C65.5,44.089 65.483,43.928 65.452,43.77C65.452,43.768 65.452,43.766 65.451,43.763C65.409,43.551 65.33,43.35 65.235,43.156C65.211,43.107 65.186,43.061 65.159,43.014C65.05,42.824 64.925,42.642 64.767,42.484L51.267,28.984C51.11,28.826 50.928,28.702 50.738,28.593C50.69,28.565 50.642,28.54 50.593,28.515C50.4,28.421 50.2,28.342 49.989,28.3C49.984,28.299 49.979,28.3 49.974,28.299C49.818,28.269 49.66,28.252 49.499,28.252L30.499,28.252L30.499,24.252ZM52,36.787L56.964,41.751L52,41.751L52,36.787ZM21.5,33.252L47,33.252L47,44.252C47,45.633 48.119,46.752 49.5,46.752L60.5,46.752L60.5,57.919L50.945,57.919C50.93,57.859 50.904,57.803 50.888,57.743C50.8,57.417 50.697,57.097 50.578,56.783C50.551,56.711 50.529,56.637 50.5,56.565C50.347,56.189 50.17,55.823 49.973,55.467C49.922,55.375 49.864,55.286 49.81,55.196C49.648,54.924 49.474,54.66 49.287,54.403C49.216,54.306 49.146,54.208 49.072,54.113C48.816,53.787 48.547,53.47 48.249,53.172C46.313,51.235 43.739,50.169 41.001,50.169C38.263,50.169 35.689,51.235 33.753,53.171C33.455,53.469 33.185,53.787 32.928,54.114C32.855,54.208 32.786,54.304 32.716,54.399C32.527,54.658 32.351,54.925 32.188,55.198C32.135,55.287 32.078,55.374 32.028,55.464C31.83,55.821 31.652,56.187 31.499,56.565C31.47,56.635 31.45,56.708 31.423,56.779C31.303,57.094 31.2,57.416 31.112,57.742C31.096,57.802 31.07,57.858 31.055,57.918L21.5,57.918L21.5,33.252ZM46.25,60.418C46.25,61.82 45.704,63.139 44.712,64.131C43.721,65.122 42.403,65.668 41,65.668C38.105,65.668 35.75,63.313 35.75,60.418C35.75,59.016 36.296,57.697 37.288,56.706C38.279,55.714 39.598,55.168 41,55.168C42.402,55.168 43.721,55.714 44.712,56.707C45.704,57.698 46.25,59.016 46.25,60.418ZM12.83,54.208C12.83,53.213 13.213,52.284 13.925,51.578C14.606,50.891 15.519,50.509 16.5,50.498L16.5,57.917C14.473,57.897 12.83,56.24 12.83,54.208ZM60.5,84.748L21.5,84.748L21.5,62.918L31.058,62.918C31.086,63.031 31.125,63.14 31.157,63.251C31.189,63.362 31.22,63.472 31.255,63.581C31.322,63.788 31.399,63.991 31.479,64.192C31.514,64.281 31.546,64.371 31.583,64.459C31.705,64.743 31.838,65.022 31.985,65.292C32,65.32 32.018,65.346 32.033,65.373C32.167,65.614 32.31,65.85 32.462,66.079C32.52,66.167 32.584,66.25 32.645,66.336C32.762,66.501 32.882,66.664 33.008,66.821C33.082,66.914 33.16,67.003 33.237,67.093C33.361,67.237 33.489,67.378 33.621,67.516C33.704,67.602 33.788,67.688 33.874,67.771C34.015,67.907 34.16,68.038 34.309,68.166C34.393,68.239 34.475,68.313 34.562,68.383C34.743,68.529 34.93,68.667 35.121,68.801C35.181,68.843 35.238,68.89 35.299,68.931C35.553,69.101 35.814,69.26 36.083,69.408C36.155,69.447 36.23,69.481 36.303,69.518C36.504,69.622 36.708,69.723 36.917,69.814C37.021,69.859 37.127,69.899 37.232,69.941C37.417,70.015 37.604,70.084 37.794,70.147C37.909,70.185 38.025,70.22 38.142,70.254C38.333,70.31 38.526,70.359 38.721,70.403C38.837,70.429 38.953,70.456 39.07,70.479C39.283,70.52 39.499,70.551 39.716,70.578C39.818,70.591 39.919,70.608 40.023,70.618C40.345,70.649 40.67,70.667 40.999,70.667C43.738,70.667 46.312,69.601 48.247,67.665C48.545,67.367 48.815,67.049 49.071,66.722C49.145,66.628 49.214,66.532 49.284,66.435C49.473,66.176 49.648,65.91 49.811,65.637C49.864,65.548 49.921,65.461 49.971,65.37C50.169,65.013 50.347,64.647 50.5,64.27C50.529,64.2 50.55,64.127 50.577,64.056C50.697,63.741 50.8,63.419 50.888,63.093C50.904,63.034 50.93,62.977 50.945,62.918L60.5,62.918L60.5,84.748ZM69.5,75.748L65.5,75.748L65.5,62.918L69.5,62.918L69.5,75.748ZM78.5,66.748L74.5,66.748L74.5,62.918L78.5,62.918L78.5,66.748ZM86.075,56.839C85.394,57.526 84.481,57.907 83.5,57.918L83.5,50.499C85.527,50.521 87.17,52.176 87.17,54.208C87.17,55.204 86.787,56.133 86.075,56.839Z" style="fill-rule:nonzero;"/>
    </g>
</svg>
