<?xml version="1.0" encoding="UTF-8" standalone="no"?>
<!DOCTYPE svg PUBLIC "-//W3C//DTD SVG 1.1//EN" "http://www.w3.org/Graphics/SVG/1.1/DTD/svg11.dtd">
<svg width="100%" height="100%" viewBox="0 0 512 512" version="1.1" xmlns="http://www.w3.org/2000/svg" xmlns:xlink="http://www.w3.org/1999/xlink" xml:space="preserve" xmlns:serif="http://www.serif.com/" style="fill-rule:evenodd;clip-rule:evenodd;stroke-linejoin:round;stroke-miterlimit:2;">
    <g transform="matrix(6.61499,0,0,6.61499,-74.7494,-75.0801)">
        <path d="M37.8,44C37.8,50.5 42.8,58.8 48.4,58.8C53.7,58.8 59,51.5 59,44C59,38.5 57.2,32 48.4,32C39.6,32 37.8,38.5 37.8,44Z" style="fill:none;fill-rule:nonzero;"/>
        <path d="M82.6,63.2C82.6,59.8 79.8,57 76.4,57C73,57 70.2,59.8 70.2,63.2L70.2,65L82.5,65L82.5,63.2L82.6,63.2Z" style="fill:none;fill-rule:nonzero;"/>
        <path d="M68.2,82.2L84.7,82.2L84.7,68.9L68.2,68.9L68.2,82.2ZM76.5,71.9C77.9,71.9 79.1,73.1 79.1,74.5C79.1,75.5 78.5,76.3 77.7,76.8L77.7,79.5C77.7,80.1 77.2,80.6 76.6,80.6L76.3,80.6C75.7,80.6 75.2,80.1 75.2,79.5L75.2,76.8C74.4,76.4 73.8,75.5 73.8,74.5C73.8,73.1 75,71.9 76.5,71.9Z" style="fill:none;fill-rule:nonzero;"/>
        <path d="M22.6,76.7C29.3,83.2 38.4,87.2 48.4,87.2C52.6,87.2 56.7,86.5 60.6,85.2C61.6,84.8 62.2,83.7 61.8,82.7C61.4,81.7 60.3,81.1 59.3,81.5C55.8,82.7 52.2,83.3 48.4,83.3C39.9,83.3 32.2,80.1 26.3,74.9C28.5,71.2 31.8,68 35.6,65.5C37.9,66.7 43.4,69.2 47.7,69.2C53.1,69.2 60.6,65.1 60.9,64.9C61.9,64.4 62.2,63.1 61.7,62.2C61.2,61.2 59.9,60.9 59,61.4C57.1,62.4 51.4,65.2 47.8,65.2C44.2,65.2 38.5,62.5 36.6,61.4C36,61.1 35.2,61.1 34.6,61.4C30.1,64.1 26.3,67.7 23.6,71.9C18.5,66.1 15.4,58.5 15.4,50.1C15.4,31.8 30.3,17 48.5,17C66.7,17 81.5,31.7 81.5,50C81.5,51.1 82.4,52 83.5,52C84.6,52 85.5,51.1 85.5,50C85.5,29.5 68.8,12.9 48.4,12.9C28,12.9 11.3,29.5 11.3,50C11.3,60.3 15.5,69.6 22.3,76.3C22.3,76.4 22.5,76.6 22.6,76.7Z" style="fill-rule:nonzero;"/>
        <path d="M33.8,44C33.8,53.5 41,62.8 48.4,62.8C56,62.8 63,53.8 63,44C63,33.8 57.7,28 48.4,28C39.1,28 33.8,33.8 33.8,44ZM58.9,44C58.9,51.5 53.7,58.8 48.3,58.8C42.7,58.8 37.7,50.5 37.7,44C37.7,38.5 39.5,32 48.3,32C57.1,32 58.9,38.5 58.9,44Z" style="fill-rule:nonzero;"/>
        <path d="M76.5,53C70.9,53 66.3,57.6 66.3,63.2L66.3,65L66.2,65C65.1,65 64.2,65.9 64.2,67L64.2,84.2C64.2,85.3 65.1,86.2 66.2,86.2L86.7,86.2C87.8,86.2 88.7,85.3 88.7,84.2L88.7,66.9C88.7,65.8 87.8,64.9 86.7,64.9L86.6,64.9L86.6,63.1C86.6,57.6 82.1,53 76.5,53ZM70.3,63.2C70.3,59.8 73.1,57 76.5,57C79.9,57 82.7,59.8 82.7,63.2L82.7,65L70.3,65L70.3,63.2ZM84.7,82.2L68.2,82.2L68.2,68.9L84.7,68.9L84.7,82.2Z" style="fill-rule:nonzero;"/>
        <path d="M75.2,76.8L75.2,79.5C75.2,80.1 75.7,80.6 76.3,80.6L76.6,80.6C77.2,80.6 77.7,80.1 77.7,79.5L77.7,76.8C78.5,76.4 79.1,75.5 79.1,74.5C79.1,73.1 77.9,71.9 76.5,71.9C75.1,71.9 73.9,73.1 73.9,74.5C73.8,75.5 74.4,76.4 75.2,76.8Z" style="fill-rule:nonzero;"/>
    </g>
</svg>
