<?xml version="1.0" encoding="UTF-8" standalone="no"?>
<!DOCTYPE svg PUBLIC "-//W3C//DTD SVG 1.1//EN" "http://www.w3.org/Graphics/SVG/1.1/DTD/svg11.dtd">
<svg width="100%" height="100%" viewBox="0 0 512 512" version="1.1" xmlns="http://www.w3.org/2000/svg" xmlns:xlink="http://www.w3.org/1999/xlink" xml:space="preserve" xmlns:serif="http://www.serif.com/" style="fill-rule:evenodd;clip-rule:evenodd;stroke-linejoin:round;stroke-miterlimit:2;">
    <g transform="matrix(5.12,0,0,5.12,0,0)">
        <path d="M91.48,24.82L91.48,84.6C91.48,85.7 90.59,86.6 89.48,86.6L71.3,86.6C70.2,86.6 69.3,85.7 69.3,84.6C69.3,83.49 70.2,82.6 71.3,82.6L87.48,82.6L87.48,30.4L12.52,30.4L12.52,82.6L28.7,82.6C29.8,82.6 30.7,83.49 30.7,84.6C30.7,85.7 29.8,86.6 28.7,86.6L10.52,86.6C9.41,86.6 8.52,85.7 8.52,84.6L8.52,24.82C8.52,17.46 14.51,11.47 21.87,11.47L22.53,11.47L22.53,7.57C22.53,6.47 23.43,5.57 24.53,5.57C25.63,5.57 26.53,6.47 26.53,7.57L26.53,11.47L32.72,11.47L32.72,7.57C32.72,6.47 33.61,5.57 34.72,5.57C35.82,5.57 36.72,6.47 36.72,7.57L36.72,11.47L42.91,11.47L42.91,7.57C42.91,6.47 43.8,5.57 44.91,5.57C46.01,5.57 46.91,6.47 46.91,7.57L46.91,11.47L53.09,11.47L53.09,7.57C53.09,6.47 53.99,5.57 55.09,5.57C56.2,5.57 57.09,6.47 57.09,7.57L57.09,11.47L63.28,11.47L63.28,7.57C63.28,6.47 64.18,5.57 65.28,5.57C66.39,5.57 67.28,6.47 67.28,7.57L67.28,11.47L73.47,11.47L73.47,7.57C73.47,6.47 74.37,5.57 75.47,5.57C76.57,5.57 77.47,6.47 77.47,7.57L77.47,11.47L78.13,11.47C85.49,11.47 91.48,17.46 91.48,24.82Z" style="fill-rule:nonzero;"/>
        <path d="M21.521,40.626L28.697,40.626C29.801,40.626 30.697,39.73 30.697,38.626C30.697,37.522 29.801,36.626 28.697,36.626L21.521,36.626C20.417,36.626 19.521,37.522 19.521,38.626C19.521,39.73 20.417,40.626 21.521,40.626Z" style="fill-rule:nonzero;"/>
        <path d="M38.115,40.626L45.291,40.626C46.395,40.626 47.291,39.73 47.291,38.626C47.291,37.522 46.395,36.626 45.291,36.626L38.115,36.626C37.011,36.626 36.115,37.522 36.115,38.626C36.115,39.73 37.011,40.626 38.115,40.626Z" style="fill-rule:nonzero;"/>
        <path d="M54.709,40.626L61.885,40.626C62.989,40.626 63.885,39.73 63.885,38.626C63.885,37.522 62.989,36.626 61.885,36.626L54.709,36.626C53.605,36.626 52.709,37.522 52.709,38.626C52.709,39.73 53.604,40.626 54.709,40.626Z" style="fill-rule:nonzero;"/>
        <path d="M71.303,40.626L78.479,40.626C79.583,40.626 80.479,39.73 80.479,38.626C80.479,37.522 79.583,36.626 78.479,36.626L71.303,36.626C70.199,36.626 69.303,37.522 69.303,38.626C69.303,39.73 70.198,40.626 71.303,40.626Z" style="fill-rule:nonzero;"/>
        <path d="M21.521,51.514L28.697,51.514C29.801,51.514 30.697,50.618 30.697,49.514C30.697,48.41 29.801,47.514 28.697,47.514L21.521,47.514C20.417,47.514 19.521,48.41 19.521,49.514C19.521,50.618 20.417,51.514 21.521,51.514Z" style="fill-rule:nonzero;"/>
        <path d="M38.115,51.514L45.291,51.514C46.395,51.514 47.291,50.618 47.291,49.514C47.291,48.41 46.395,47.514 45.291,47.514L38.115,47.514C37.011,47.514 36.115,48.41 36.115,49.514C36.115,50.618 37.011,51.514 38.115,51.514Z" style="fill-rule:nonzero;"/>
        <path d="M54.709,51.514L61.885,51.514C62.989,51.514 63.885,50.618 63.885,49.514C63.885,48.41 62.989,47.514 61.885,47.514L54.709,47.514C53.605,47.514 52.709,48.41 52.709,49.514C52.709,50.618 53.604,51.514 54.709,51.514Z" style="fill-rule:nonzero;"/>
        <path d="M71.303,51.514L78.479,51.514C79.583,51.514 80.479,50.618 80.479,49.514C80.479,48.41 79.583,47.514 78.479,47.514L71.303,47.514C70.199,47.514 69.303,48.41 69.303,49.514C69.303,50.618 70.198,51.514 71.303,51.514Z" style="fill-rule:nonzero;"/>
        <path d="M21.521,62.4L28.697,62.4C29.801,62.4 30.697,61.504 30.697,60.4C30.697,59.296 29.801,58.4 28.697,58.4L21.521,58.4C20.417,58.4 19.521,59.296 19.521,60.4C19.521,61.504 20.417,62.4 21.521,62.4Z" style="fill-rule:nonzero;"/>
        <path d="M71.303,62.4L78.479,62.4C79.583,62.4 80.479,61.504 80.479,60.4C80.479,59.296 79.583,58.4 78.479,58.4L71.303,58.4C70.199,58.4 69.303,59.296 69.303,60.4C69.303,61.504 70.198,62.4 71.303,62.4Z" style="fill-rule:nonzero;"/>
        <path d="M89.481,90.428L66.38,90.428C65.276,90.428 64.38,91.324 64.38,92.428C64.38,93.532 65.276,94.428 66.38,94.428L89.482,94.428C90.586,94.428 91.482,93.532 91.482,92.428C91.482,91.324 90.586,90.428 89.481,90.428Z" style="fill-rule:nonzero;"/>
        <path d="M33.62,90.428L10.519,90.428C9.415,90.428 8.519,91.324 8.519,92.428C8.519,93.532 9.415,94.428 10.519,94.428L33.62,94.428C34.724,94.428 35.62,93.532 35.62,92.428C35.62,91.324 34.725,90.428 33.62,90.428Z" style="fill-rule:nonzero;"/>
        <path d="M50,58.75C40.16,58.75 32.16,66.75 32.16,76.59C32.16,86.43 40.16,94.43 50,94.43C59.84,94.43 67.84,86.43 67.84,76.59C67.84,66.75 59.84,58.75 50,58.75ZM57.28,79.06L50,86.34L48.59,84.93L48.59,84.92L42.72,79.06C41.94,78.28 41.94,77.01 42.72,76.23C43.5,75.45 44.77,75.45 45.55,76.23L48,78.68L48,69.67C48,68.57 48.9,67.67 50,67.67C51.1,67.67 52,68.57 52,69.67L52,78.68L54.45,76.23C55.23,75.45 56.5,75.45 57.28,76.23C58.06,77.01 58.06,78.28 57.28,79.06Z" style="fill-rule:nonzero;"/>
    </g>
</svg>
