<?xml version="1.0" encoding="UTF-8" standalone="no"?>
<!DOCTYPE svg PUBLIC "-//W3C//DTD SVG 1.1//EN" "http://www.w3.org/Graphics/SVG/1.1/DTD/svg11.dtd">
<svg width="100%" height="100%" viewBox="0 0 512 512" version="1.1" xmlns="http://www.w3.org/2000/svg" xmlns:xlink="http://www.w3.org/1999/xlink" xml:space="preserve" xmlns:serif="http://www.serif.com/" style="fill-rule:evenodd;clip-rule:evenodd;stroke-linejoin:round;stroke-miterlimit:2;">
    <g id="base">
        <circle cx="256" cy="256" r="256" style="fill:white;"/>
        <path d="M256,0C397.29,0 512,114.71 512,256C512,397.29 397.29,512 256,512C114.71,512 0,397.29 0,256C0,114.71 114.71,0 256,0ZM256,40C375.214,40 472,136.786 472,256C472,375.214 375.214,472 256,472C136.786,472 40,375.214 40,256C40,136.786 136.786,40 256,40Z"/>
    </g>
    <g id="text2809_1_" transform="matrix(8.22041,0,0,8.22041,-7.04909,-7.0532)">
        <path d="M32,13.58C21.435,13.58 18.778,23.549 18.778,32C18.778,40.452 21.434,50.42 32,50.42C42.564,50.42 45.221,40.452 45.221,32C45.221,23.549 42.564,13.58 32,13.58ZM32,20.526C32.429,20.526 32.82,20.592 33.188,20.683C33.949,21.339 34.321,22.244 33.591,23.506L26.555,36.436C26.339,34.8 26.308,33.196 26.308,31.999C26.308,28.277 26.566,20.526 32,20.526ZM37.266,26.487C37.639,28.471 37.692,30.543 37.692,32C37.692,35.723 37.434,43.475 32.002,43.475C31.574,43.475 31.18,43.43 30.814,43.339C30.744,43.318 30.68,43.296 30.612,43.272C30.5,43.24 30.382,43.204 30.276,43.162C29.066,42.647 28.304,41.716 29.402,40.069L37.266,26.487Z" style="fill-rule:nonzero;"/>
    </g>
</svg>
