<?xml version="1.0" encoding="UTF-8" standalone="no"?>
<!DOCTYPE svg PUBLIC "-//W3C//DTD SVG 1.1//EN" "http://www.w3.org/Graphics/SVG/1.1/DTD/svg11.dtd">
<svg width="100%" height="100%" viewBox="0 0 512 512" version="1.1" xmlns="http://www.w3.org/2000/svg" xmlns:xlink="http://www.w3.org/1999/xlink" xml:space="preserve" xmlns:serif="http://www.serif.com/" style="fill-rule:evenodd;clip-rule:evenodd;stroke-linejoin:round;stroke-miterlimit:2;">
    <g id="base">
        <circle cx="256" cy="256" r="256" style="fill:white;"/>
        <path d="M256,0C397.29,0 512,114.71 512,256C512,397.29 397.29,512 256,512C114.71,512 0,397.29 0,256C0,114.71 114.71,0 256,0ZM256,40C375.214,40 472,136.786 472,256C472,375.214 375.214,472 256,472C136.786,472 40,375.214 40,256C40,136.786 136.786,40 256,40Z"/>
    </g>
    <g transform="matrix(3.0625,0,0,3.0625,256,158)">
        <path d="M31.943,0C40.894,0 48.474,3.105 54.685,9.315C60.893,15.487 64,23.048 64,32C64,40.954 60.951,48.457 54.855,54.514C48.418,60.838 40.779,64 31.943,64C23.294,64 15.79,60.857 9.429,54.57C3.144,48.286 0,40.764 0,32.001C0,23.278 3.144,15.716 9.429,9.316C15.638,3.105 23.143,0 31.943,0ZM32.057,5.772C24.781,5.772 18.629,8.344 13.6,13.487C8.38,18.783 5.771,24.954 5.771,32C5.771,39.125 8.361,45.257 13.541,50.4C18.722,55.582 24.893,58.171 32.055,58.171C39.178,58.171 45.389,55.563 50.684,50.343C55.713,45.467 58.227,39.354 58.227,32C58.227,24.687 55.674,18.515 50.571,13.487C45.504,8.342 39.332,5.772 32.057,5.772ZM44.115,24.456L44.115,29.942L20.858,29.942L20.858,24.456L44.115,24.456ZM44.115,34.743L44.115,40.226L20.858,40.226L20.858,34.743L44.115,34.743Z" style="fill-rule:nonzero;"/>
    </g>
    <g transform="matrix(3.0625,0,0,3.0625,60,158)">
        <path d="M31.943,0C40.931,0 48.513,3.085 54.685,9.257C60.893,15.467 64,23.048 64,32C64,40.991 60.951,48.476 54.855,54.456C48.379,60.819 40.742,64 31.943,64C23.294,64 15.79,60.856 9.429,54.57C3.144,48.284 0,40.762 0,32C0,23.239 3.144,15.658 9.429,9.258C15.601,3.085 23.104,0 31.943,0ZM32.057,5.772C24.781,5.772 18.629,8.325 13.6,13.429C8.38,18.763 5.771,24.954 5.771,32.001C5.771,39.087 8.361,45.221 13.541,50.399C18.722,55.581 24.893,58.17 32.055,58.17C39.178,58.17 45.389,55.563 50.684,50.342C55.713,45.504 58.227,39.39 58.227,31.999C58.227,24.723 55.674,18.534 50.571,13.428C45.467,8.324 39.295,5.772 32.057,5.772ZM40.629,24.057L40.629,37.142L36.973,37.142L36.973,52.684L27.029,52.684L27.029,37.143L23.373,37.143L23.373,24.057C23.373,23.485 23.573,23 23.972,22.6C24.373,22.201 24.859,22 25.429,22L38.573,22C39.106,22 39.583,22.2 40.001,22.6C40.418,23 40.629,23.486 40.629,24.057ZM27.542,15.829C27.542,12.821 29.027,11.315 32,11.315C34.973,11.315 36.457,12.819 36.457,15.829C36.457,18.8 34.971,20.286 32,20.286C29.029,20.286 27.542,18.8 27.542,15.829Z" style="fill-rule:nonzero;"/>
    </g>
</svg>
