<?xml version="1.0" standalone="no"?>
<!DOCTYPE svg PUBLIC "-//W3C//DTD SVG 20010904//EN"
 "http://www.w3.org/TR/2001/REC-SVG-20010904/DTD/svg10.dtd">
<svg version="1.0" xmlns="http://www.w3.org/2000/svg"
 width="4096.000000pt" height="4096.000000pt" viewBox="0 0 4096.000000 4096.000000"
 preserveAspectRatio="xMidYMid meet">
<metadata>
Created by potrace 1.14, written by Peter Selinger 2001-2017
</metadata>
<g transform="translate(0.000000,4096.000000) scale(0.100000,-0.100000)"
fill="#000000" stroke="none">
<path d="M37392 32299 c-4 -3 -72 -31 -152 -63 -80 -32 -154 -61 -165 -66 -11
-5 -60 -25 -110 -45 -49 -20 -99 -40 -110 -45 -11 -5 -110 -46 -220 -90 -110
-45 -214 -87 -232 -95 -17 -8 -34 -15 -38 -15 -4 0 -21 -6 -38 -14 -33 -15
-180 -75 -492 -201 -230 -93 -305 -124 -330 -135 -11 -5 -54 -23 -95 -38 -78
-30 -930 -376 -965 -392 -11 -5 -94 -39 -185 -76 -276 -111 -384 -154 -405
-164 -11 -5 -56 -23 -100 -41 -44 -17 -93 -37 -110 -44 -16 -8 -158 -65 -315
-129 -157 -63 -386 -156 -510 -206 -124 -51 -335 -136 -470 -191 -135 -54
-253 -104 -262 -109 -10 -6 -22 -10 -28 -10 -6 0 -29 -9 -53 -20 -23 -10 -127
-53 -232 -96 -104 -42 -194 -80 -199 -85 -9 -8 -14 -3735 -5 -3742 2 -2 438
177 969 398 531 221 1017 424 1080 450 63 26 129 54 145 61 17 7 68 28 115 48
47 19 139 58 205 86 66 28 125 52 130 54 6 1 27 10 49 19 21 9 40 17 43 17 2
0 23 9 47 19 23 11 67 30 97 41 30 12 68 28 84 35 17 7 71 30 120 50 50 21
104 43 120 50 17 8 221 93 455 190 234 97 467 194 518 216 51 21 94 39 96 39
2 0 4 -3932 4 -8737 0 -4806 1 -8749 1 -8763 l1 -25 2138 0 2137 0 1 10933 c1
8133 -1 10932 -10 10933 -41 5 -2718 3 -2724 -2z"/>
<path d="M6859 27445 c-2 -2 -60 -6 -129 -10 -69 -4 -138 -9 -155 -10 -16 -1
-68 -6 -115 -9 -47 -4 -95 -9 -106 -11 -12 -2 -48 -6 -80 -10 -68 -8 -335 -43
-379 -51 -197 -33 -331 -59 -560 -109 -11 -3 -29 -7 -40 -9 -216 -45 -893
-253 -1060 -325 -11 -5 -40 -17 -65 -26 -317 -116 -1000 -450 -1280 -625 -8
-5 -78 -49 -155 -97 -125 -77 -227 -145 -380 -252 -166 -115 -551 -417 -615
-481 -3 -3 -27 -25 -55 -49 -194 -171 -431 -402 -613 -600 l-96 -103 49 -45
c28 -25 99 -91 159 -147 60 -56 118 -109 129 -119 12 -10 48 -44 82 -75 34
-31 105 -97 159 -147 54 -49 113 -103 130 -120 18 -16 79 -73 136 -125 57 -52
134 -122 170 -156 36 -33 92 -85 125 -115 32 -29 69 -63 80 -74 12 -11 68 -63
125 -115 57 -52 119 -110 139 -129 63 -59 221 -203 242 -222 21 -18 200 -184
304 -281 33 -31 72 -66 87 -77 l26 -21 21 26 c111 141 583 609 796 789 33 28
66 57 75 65 25 25 280 223 345 268 118 83 234 158 350 229 28 17 171 95 230
126 153 80 409 183 588 237 37 11 95 29 130 39 34 11 74 22 87 24 14 3 72 16
130 30 344 84 795 131 1255 130 192 0 406 -9 455 -18 9 -2 40 -6 70 -10 30 -3
66 -8 80 -10 14 -1 54 -8 90 -14 36 -6 79 -13 95 -16 17 -3 46 -9 65 -15 19
-5 67 -17 105 -26 39 -9 136 -37 216 -64 745 -244 1331 -747 1606 -1375 46
-103 104 -292 123 -395 19 -103 19 -103 35 -235 5 -42 5 -361 0 -415 -14 -162
-36 -300 -62 -405 -8 -33 -16 -67 -18 -75 -16 -70 -76 -231 -129 -340 -102
-213 -199 -346 -386 -530 -93 -92 -303 -260 -324 -260 -3 0 -24 -13 -48 -29
-150 -101 -538 -248 -728 -277 -19 -3 -51 -9 -70 -14 -19 -5 -62 -12 -95 -16
-33 -3 -67 -8 -76 -9 -9 -2 -52 -6 -95 -10 -43 -4 -88 -10 -99 -12 -11 -3
-483 -7 -1050 -8 -566 -2 -1037 -4 -1045 -4 -13 -1 -15 -149 -15 -1293 l0
-1293 85 -2 c47 -2 594 -4 1215 -6 622 -2 1150 -7 1175 -10 25 -4 67 -9 94
-12 44 -5 128 -17 216 -31 64 -10 284 -64 365 -90 289 -93 548 -228 790 -413
119 -91 260 -228 352 -344 32 -40 60 -74 64 -77 16 -15 122 -186 157 -255 64
-127 133 -311 148 -395 3 -14 7 -32 10 -40 9 -24 34 -169 42 -240 9 -87 9
-470 -1 -545 -31 -241 -90 -441 -192 -650 -53 -109 -172 -308 -195 -325 -4 -3
-11 -12 -16 -21 -40 -71 -303 -337 -424 -430 -81 -62 -220 -159 -269 -187 -13
-8 -40 -23 -60 -35 -78 -45 -230 -121 -306 -154 -147 -63 -411 -157 -500 -178
-5 -1 -17 -4 -25 -7 -38 -13 -372 -85 -437 -94 -26 -3 -55 -8 -63 -9 -9 -2
-43 -6 -75 -10 -33 -4 -68 -9 -77 -11 -15 -2 -50 -6 -183 -20 -225 -23 -837
-23 -1135 1 -105 8 -185 15 -210 19 -14 3 -57 7 -95 10 -39 4 -82 8 -95 11
-14 3 -45 7 -70 10 -25 3 -52 7 -60 10 -8 2 -37 6 -65 10 -27 3 -72 10 -100
15 -27 6 -61 12 -75 15 -14 3 -47 9 -75 15 -27 6 -60 12 -72 15 -120 22 -507
134 -588 170 -16 7 -41 16 -54 20 -13 4 -40 14 -60 23 -20 9 -40 16 -46 18
-17 3 -297 135 -355 166 -30 17 -84 47 -120 66 -82 45 -322 198 -409 260 -36
26 -84 60 -107 75 -22 15 -49 35 -60 45 -10 9 -37 30 -59 46 -22 17 -42 32
-45 35 -3 4 -25 22 -50 41 -154 119 -410 350 -625 566 l-141 142 -74 -71 c-41
-38 -105 -97 -141 -131 -104 -97 -291 -271 -329 -306 -41 -38 -258 -241 -304
-285 -18 -16 -83 -77 -146 -135 -62 -58 -129 -120 -149 -139 -116 -108 -261
-243 -291 -271 -19 -18 -87 -81 -150 -140 -63 -59 -144 -134 -179 -166 -35
-32 -81 -75 -101 -94 -21 -19 -85 -79 -143 -134 l-105 -98 66 -71 c104 -110
341 -345 427 -422 43 -38 83 -74 89 -80 123 -111 324 -272 506 -407 494 -365
1075 -689 1685 -940 66 -27 129 -53 140 -57 11 -5 34 -14 50 -21 130 -53 504
-179 725 -244 126 -37 511 -135 586 -150 185 -37 336 -66 364 -71 19 -3 46 -7
60 -10 24 -4 55 -10 125 -21 17 -2 41 -6 55 -9 14 -2 45 -7 70 -10 25 -3 56
-8 70 -10 14 -2 50 -7 80 -10 30 -3 66 -8 80 -10 14 -2 52 -7 85 -10 33 -3 78
-8 100 -10 93 -10 198 -19 350 -30 359 -25 987 -25 1390 0 153 10 424 35 525
50 14 2 50 7 80 10 73 8 302 43 365 55 28 5 64 12 80 15 33 5 67 12 105 20 36
8 71 14 105 20 59 11 438 105 523 131 442 132 719 237 1080 410 73 35 134 64
136 64 11 0 437 239 446 250 3 4 12 9 20 12 27 10 323 212 440 300 214 160
376 303 575 502 114 115 161 166 275 300 14 16 30 34 35 40 6 6 42 51 80 100
233 300 430 626 568 941 68 156 76 175 70 175 -3 0 -1 6 4 13 16 19 109 308
144 447 32 128 35 143 44 195 3 17 8 37 10 45 2 8 7 35 10 60 4 24 8 47 10 50
2 4 6 33 10 66 3 32 8 73 11 89 19 108 29 301 29 555 0 273 -11 436 -40 593
-2 15 -10 55 -16 90 -6 34 -22 107 -35 162 -14 55 -26 107 -29 116 -22 95
-103 316 -173 469 -57 126 -172 341 -198 371 -8 8 -14 19 -14 22 0 6 -67 106
-109 163 -9 12 -23 32 -31 44 -8 12 -20 28 -25 34 -6 6 -27 33 -47 59 -120
158 -315 358 -559 572 -71 63 -253 199 -381 284 -416 276 -866 484 -1401 645
-103 32 -289 81 -340 92 -10 2 -26 5 -35 8 -9 3 -30 8 -47 11 -16 3 -64 13
-105 23 l-75 17 135 44 c146 47 384 134 428 157 15 7 31 14 35 14 15 0 409
189 457 220 8 5 62 37 120 71 218 128 500 332 674 489 66 58 340 332 392 390
365 414 629 875 783 1365 22 72 43 141 45 155 3 14 15 66 27 115 29 124 33
148 54 300 8 61 18 130 21 155 9 75 12 619 3 715 -13 142 -20 215 -23 233 -2
9 -7 40 -10 67 -24 170 -24 171 -43 255 -67 313 -162 610 -272 855 -77 170
-209 414 -281 522 -17 24 -30 46 -30 48 0 12 -267 375 -290 395 -3 3 -41 48
-85 100 -88 104 -342 362 -445 451 -137 119 -306 253 -397 317 -10 7 -40 28
-68 48 -27 20 -81 56 -120 81 -38 25 -86 56 -105 68 -146 97 -524 297 -725
385 -66 29 -133 58 -150 66 -16 7 -66 27 -110 44 -44 17 -89 35 -100 40 -115
54 -703 227 -895 264 -14 2 -83 16 -155 31 -71 15 -137 28 -147 30 -9 2 -38 7
-65 11 -26 3 -57 8 -68 10 -25 5 -297 43 -345 49 -113 13 -206 21 -365 30 -60
4 -121 9 -135 12 -28 6 -936 14 -941 8z"/>
<path d="M16362 18790 c0 -7814 1 -8398 16 -8402 31 -6 6685 -1 6837 6 213 9
300 14 380 21 39 3 102 8 140 11 39 3 84 7 100 9 17 1 66 6 110 10 44 4 82 8
85 10 3 2 34 6 70 10 36 4 79 9 95 11 17 2 50 6 75 9 25 3 52 8 60 10 8 2 35
7 60 10 25 3 108 17 185 30 133 24 156 28 215 40 14 2 36 7 50 9 57 11 312 69
405 92 440 113 914 272 1265 425 25 11 54 24 65 29 11 5 63 27 115 49 52 23
140 63 195 90 l99 48 65 -91 c36 -50 75 -102 87 -116 148 -174 274 -302 401
-408 95 -80 220 -172 233 -172 5 0 10 -4 10 -10 0 -5 4 -10 9 -10 6 0 30 -13
54 -29 179 -122 508 -254 752 -302 161 -33 186 -37 300 -46 243 -19 564 -1
760 42 268 60 453 131 710 272 48 27 225 149 308 213 104 79 242 213 388 376
71 79 209 268 255 349 118 206 192 378 245 562 22 74 41 148 44 164 3 16 7 44
10 62 3 17 10 57 16 87 21 117 27 223 24 440 -2 124 -6 236 -8 250 -3 14 -8
48 -12 75 -12 95 -16 121 -42 230 -84 362 -260 723 -486 992 -129 154 -260
287 -391 395 -34 28 -62 54 -63 57 -2 3 27 60 63 126 154 283 299 587 400 839
25 61 49 120 54 131 41 92 184 530 239 730 28 105 82 326 95 390 4 17 8 39 11
50 11 51 54 273 59 300 2 17 8 50 11 75 4 25 9 54 11 65 2 11 6 36 9 55 27
201 35 266 41 330 3 41 8 78 10 81 2 3 6 50 9 103 4 54 8 114 10 134 25 253
26 952 1 1287 -14 178 -18 231 -21 245 -2 8 -6 49 -10 90 -4 41 -9 83 -10 92
-2 9 -6 43 -10 75 -3 32 -8 65 -10 73 -2 8 -6 38 -10 65 -3 28 -10 75 -15 105
-5 30 -12 71 -15 90 -36 218 -171 792 -214 910 -6 14 -19 59 -31 100 -12 41
-26 84 -30 95 -4 11 -27 76 -50 145 -58 169 -195 508 -264 654 -31 65 -56 120
-56 122 0 6 -151 308 -177 354 -11 19 -42 76 -68 125 -27 50 -69 124 -93 165
-25 41 -52 89 -62 105 -206 360 -607 911 -895 1231 -5 6 -44 49 -85 95 -185
207 -561 571 -820 793 -134 115 -461 365 -610 467 -36 24 -67 46 -70 49 -16
18 -345 224 -498 314 -461 268 -901 475 -1437 676 -149 56 -467 160 -600 195
-269 73 -568 146 -695 169 -14 3 -74 14 -135 26 -60 11 -121 22 -135 25 -14 3
-72 12 -130 20 -58 9 -114 18 -125 20 -11 2 -42 7 -70 10 -27 3 -63 8 -80 10
-16 3 -48 7 -70 9 -22 3 -62 7 -90 10 -79 9 -145 15 -220 21 -39 3 -92 8 -120
11 -27 3 -94 7 -148 10 -54 3 -121 8 -150 11 -29 3 -1612 7 -3519 9 l-3466 3
0 -8399z m6836 5287 c23 -3 79 -8 125 -11 45 -4 89 -9 97 -11 8 -2 42 -6 75
-10 77 -8 110 -13 215 -31 47 -8 99 -16 115 -19 17 -3 41 -8 55 -11 14 -3 36
-8 50 -10 14 -3 108 -25 210 -50 224 -56 501 -145 637 -205 23 -11 45 -19 49
-19 12 0 217 -93 368 -168 153 -75 340 -178 436 -240 318 -204 453 -304 690
-511 106 -93 384 -371 470 -471 36 -41 68 -77 71 -80 3 -3 50 -61 104 -130
231 -295 428 -611 595 -955 44 -90 80 -166 80 -169 0 -2 13 -33 29 -68 64
-139 177 -454 220 -613 10 -38 28 -104 39 -145 12 -42 24 -91 27 -109 3 -18
14 -70 25 -114 30 -132 70 -389 85 -552 4 -38 8 -86 10 -105 26 -252 25 -778
0 -1040 -3 -25 -10 -85 -15 -135 -6 -49 -13 -110 -15 -134 -2 -24 -9 -69 -15
-100 -6 -31 -13 -74 -16 -96 -9 -64 -72 -353 -95 -435 -11 -41 -25 -93 -30
-115 -10 -42 -75 -246 -89 -280 -4 -11 -27 -72 -51 -135 -23 -63 -53 -140 -67
-170 -13 -30 -28 -64 -32 -75 -69 -165 -253 -508 -372 -693 -121 -188 -331
-467 -451 -599 -274 -301 -498 -506 -812 -744 -107 -81 -412 -280 -485 -316
-14 -7 -61 -33 -105 -58 -164 -93 -410 -208 -640 -299 -265 -104 -740 -237
-974 -272 -20 -3 -47 -7 -61 -10 -78 -13 -160 -26 -194 -29 -22 -3 -74 -9
-115 -15 -42 -5 -123 -12 -181 -16 -58 -3 -114 -9 -125 -11 -11 -3 -756 -7
-1656 -8 l-1637 -2 0 5304 0 5304 1657 -4 c911 -3 1675 -7 1699 -10z"/>
</g>
</svg>
