<?xml version="1.0" encoding="UTF-8" standalone="no"?>
<!DOCTYPE svg PUBLIC "-//W3C//DTD SVG 1.1//EN" "http://www.w3.org/Graphics/SVG/1.1/DTD/svg11.dtd">
<svg width="100%" height="100%" viewBox="0 0 512 512" version="1.1" xmlns="http://www.w3.org/2000/svg" xmlns:xlink="http://www.w3.org/1999/xlink" xml:space="preserve" xmlns:serif="http://www.serif.com/" style="fill-rule:evenodd;clip-rule:evenodd;stroke-linejoin:round;stroke-miterlimit:2;">
    <g id="base">
        <circle cx="256" cy="256" r="256" style="fill:white;"/>
        <path d="M256,0C397.29,0 512,114.71 512,256C512,397.29 397.29,512 256,512C114.71,512 0,397.29 0,256C0,114.71 114.71,0 256,0ZM256,40C375.214,40 472,136.786 472,256C472,375.214 375.214,472 256,472C136.786,472 40,375.214 40,256C40,136.786 136.786,40 256,40Z"/>
    </g>
    <g transform="matrix(417.316,0,0,417.316,154.384,397.262)">
        <g>
            <path d="M0.293,-0.191L0.198,-0.191L0.198,-0.257C0.198,-0.279 0.202,-0.297 0.211,-0.31C0.22,-0.322 0.24,-0.34 0.27,-0.364C0.316,-0.399 0.339,-0.437 0.339,-0.477C0.339,-0.507 0.33,-0.53 0.312,-0.548C0.294,-0.565 0.271,-0.574 0.242,-0.574C0.175,-0.574 0.135,-0.528 0.123,-0.435L0.017,-0.454C0.023,-0.523 0.049,-0.578 0.094,-0.617C0.138,-0.657 0.192,-0.677 0.254,-0.677C0.317,-0.677 0.368,-0.658 0.409,-0.621C0.449,-0.584 0.47,-0.538 0.47,-0.483C0.47,-0.456 0.464,-0.43 0.453,-0.406C0.442,-0.381 0.429,-0.362 0.415,-0.348C0.4,-0.335 0.37,-0.311 0.324,-0.277C0.311,-0.268 0.302,-0.259 0.299,-0.25C0.295,-0.241 0.293,-0.221 0.293,-0.191ZM0.313,-0.122L0.313,-0L0.198,-0L0.198,-0.122L0.313,-0.122Z" style="fill-rule:nonzero;"/>
        </g>
    </g>
</svg>
