<?xml version="1.0" encoding="UTF-8" standalone="no"?>
<!DOCTYPE svg PUBLIC "-//W3C//DTD SVG 1.1//EN" "http://www.w3.org/Graphics/SVG/1.1/DTD/svg11.dtd">
<svg width="100%" height="100%" viewBox="0 0 100 100" version="1.1" xmlns="http://www.w3.org/2000/svg" xmlns:xlink="http://www.w3.org/1999/xlink" xml:space="preserve" xmlns:serif="http://www.serif.com/" style="fill-rule:evenodd;clip-rule:evenodd;stroke-linejoin:round;stroke-miterlimit:2;">
    <g>
        <path d="M68.608,39.695L74.86,37.65C76.482,35.335 78.114,32.937 79.662,30.567L73.974,31.222L81.412,27.832C87.089,18.803 90.885,10.919 87.076,11.003C81.568,11.125 72.389,15.348 62.963,21.049L59.43,28.115L60.122,22.804C57.265,24.612 54.502,26.531 51.754,28.49L50,33.905L50,29.819C45,33.634 39.954,37.534 36.359,40.995C35.519,41.803 34.804,42.616 34.027,43.43L32,51.981L32,45.736C29,49.287 26.247,52.832 24.447,56.183L22.776,51.981C21.692,55.371 20.344,61.301 20.344,61.301L18.775,60.171C17.504,68.362 22.741,72.68 22.741,72.68C23.179,73.23 23.689,73.727 24.301,74.153C19.829,79.512 14.14,86.715 14.158,88.671C14.177,90.708 13.648,93.282 14.835,93.282C15.877,93.282 20.643,84.248 28.103,75.713C37.572,78.275 43.887,76 49.851,70L45.308,70C45.308,70 55.531,63.687 56.664,62.221L52.298,61.577L58.566,59.723C61.343,56.012 64.313,51.858 67.724,47.405C69.309,45.335 71.121,42.892 73,40.272L68.608,39.695Z" style="fill-rule:nonzero;"/>
    </g>
</svg>
