<?xml version="1.0" encoding="UTF-8" standalone="no"?>
<!DOCTYPE svg PUBLIC "-//W3C//DTD SVG 1.1//EN" "http://www.w3.org/Graphics/SVG/1.1/DTD/svg11.dtd">
<svg width="100%" height="100%" viewBox="0 0 64 64" version="1.1" xmlns="http://www.w3.org/2000/svg" xmlns:xlink="http://www.w3.org/1999/xlink" xml:space="preserve" xmlns:serif="http://www.serif.com/" style="fill-rule:evenodd;clip-rule:evenodd;stroke-linejoin:round;stroke-miterlimit:2;">
    <g>
        <circle cx="32.137" cy="32.306" r="28.276" style="fill:white;"/>
        <g>
            <path d="M31.943,0C40.931,0 48.513,3.085 54.685,9.257C60.893,15.467 64,23.048 64,32C64,40.991 60.951,48.476 54.855,54.456C48.379,60.819 40.742,64 31.943,64C23.294,64 15.79,60.856 9.429,54.57C3.144,48.284 0,40.762 0,32C0,23.239 3.144,15.658 9.429,9.258C15.601,3.085 23.104,0 31.943,0ZM32.057,5.772C24.781,5.772 18.629,8.325 13.6,13.429C8.38,18.763 5.771,24.954 5.771,32.001C5.771,39.087 8.361,45.221 13.541,50.399C18.722,55.581 24.893,58.17 32.055,58.17C39.178,58.17 45.389,55.563 50.684,50.342C55.713,45.504 58.227,39.39 58.227,31.999C58.227,24.723 55.674,18.534 50.571,13.428C45.467,8.324 39.295,5.772 32.057,5.772Z" style="fill-rule:nonzero;"/>
            <g transform="matrix(0.165144,0,0,0.165144,-8.86247,-11.2028)">
                <g transform="matrix(326.675,0,0,326.675,168,374)">
                    <path d="M0.293,-0.191L0.198,-0.191L0.198,-0.257C0.198,-0.279 0.202,-0.297 0.211,-0.31C0.22,-0.322 0.24,-0.34 0.27,-0.364C0.316,-0.399 0.339,-0.437 0.339,-0.477C0.339,-0.507 0.33,-0.53 0.312,-0.548C0.294,-0.565 0.271,-0.574 0.242,-0.574C0.175,-0.574 0.135,-0.528 0.123,-0.435L0.017,-0.454C0.023,-0.523 0.049,-0.578 0.094,-0.617C0.138,-0.657 0.192,-0.677 0.254,-0.677C0.317,-0.677 0.368,-0.658 0.409,-0.621C0.449,-0.584 0.47,-0.538 0.47,-0.483C0.47,-0.456 0.464,-0.43 0.453,-0.406C0.442,-0.381 0.429,-0.362 0.415,-0.348C0.4,-0.335 0.37,-0.311 0.324,-0.277C0.311,-0.268 0.302,-0.259 0.299,-0.25C0.295,-0.241 0.293,-0.221 0.293,-0.191ZM0.313,-0.122L0.313,-0L0.198,-0L0.198,-0.122L0.313,-0.122Z" style="fill-rule:nonzero;"/>
                </g>
            </g>
        </g>
    </g>
</svg>
