<?xml version="1.0" encoding="UTF-8" standalone="no"?>
<!DOCTYPE svg PUBLIC "-//W3C//DTD SVG 1.1//EN" "http://www.w3.org/Graphics/SVG/1.1/DTD/svg11.dtd">
<svg width="100%" height="100%" viewBox="0 0 6000 6000" version="1.1" xmlns="http://www.w3.org/2000/svg" xmlns:xlink="http://www.w3.org/1999/xlink" xml:space="preserve" xmlns:serif="http://www.serif.com/" style="fill-rule:evenodd;clip-rule:evenodd;stroke-linejoin:round;stroke-miterlimit:2;">
    <g transform="matrix(0.707107,-0.707107,0.707107,0.707107,-1242.64,3000)">
        <g transform="matrix(4.39453,0,0,4.39453,-1500,-1500)">
            <rect x="682.667" y="682.667" width="682.667" height="682.667" style="fill:rgb(132,195,255);"/>
        </g>
        <path d="M4000,0L4500,1500L6000,2000L4000,0Z" style="fill:rgb(125,255,120);"/>
        <path d="M2000,0L1500,1500L4500,1500L4000,0L2000,0Z" style="fill:rgb(109,232,201);"/>
        <path d="M4500,4500L4000,6000L6000,4000L4500,4500Z" style="fill:rgb(132,195,255);"/>
        <path d="M4500,4500L4500,1500L6000,2000L6000,4000L4500,4500Z" style="fill:rgb(109,232,201);"/>
        <path d="M1500,4500L4500,4500L4000,6000L2000,6000L1500,4500Z" style="fill:rgb(135,109,232);"/>
        <path d="M1500,1500L1500,4500L0,4000L0,2000L1500,1500Z" style="fill:rgb(135,109,232);"/>
        <path d="M1500,4500L2000,6000L0,4000L1500,4500Z" style="fill:rgb(249,105,255);"/>
        <path d="M0,2000L1500,1500L2000,0L0,2000Z" style="fill:rgb(132,195,255);"/>
    </g>
</svg>
