<?xml version="1.0" encoding="UTF-8" standalone="no"?>
<!DOCTYPE svg PUBLIC "-//W3C//DTD SVG 1.1//EN" "http://www.w3.org/Graphics/SVG/1.1/DTD/svg11.dtd">
<svg width="100%" height="100%" viewBox="0 0 12288 2048" version="1.1" xmlns="http://www.w3.org/2000/svg" xmlns:xlink="http://www.w3.org/1999/xlink" xml:space="preserve" xmlns:serif="http://www.serif.com/" style="fill-rule:evenodd;clip-rule:evenodd;stroke-linejoin:round;stroke-miterlimit:2;">
    <g transform="matrix(1.13698,0,0,1.13698,-59.3327,-459.939)">
        <text x="2577px" y="1718px" style="font-family:'Arial-BoldMT', 'Arial', sans-serif;font-weight:700;font-size:1172.68px;fill:rgb(27,27,27);">3<tspan x="3211.6px 4040.88px 4870.16px 5504.76px 6139.36px 6773.95px 7146.88px 7781.47px 8089.69px 8788.42px 9487.15px " y="1718px 1718px 1718px 1718px 1718px 1718px 1718px 1718px 1718px 1718px 1718px ">DAssets.one</tspan></text>
    </g>
    <g transform="matrix(0.234387,-0.234387,0.234387,0.234387,403.553,1024)">
        <g transform="matrix(4.39453,0,0,4.39453,-1500,-1500)">
            <rect x="682.667" y="682.667" width="682.667" height="682.667" style="fill:rgb(132,195,255);"/>
        </g>
        <path d="M4000,0L4500,1500L6000,2000L4000,0Z" style="fill:rgb(125,255,120);"/>
        <path d="M2000,0L1500,1500L4500,1500L4000,0L2000,0Z" style="fill:rgb(109,232,201);"/>
        <path d="M4500,4500L4000,6000L6000,4000L4500,4500Z" style="fill:rgb(132,195,255);"/>
        <path d="M4500,4500L4500,1500L6000,2000L6000,4000L4500,4500Z" style="fill:rgb(109,232,201);"/>
        <path d="M1500,4500L4500,4500L4000,6000L2000,6000L1500,4500Z" style="fill:rgb(135,109,232);"/>
        <path d="M1500,1500L1500,4500L0,4000L0,2000L1500,1500Z" style="fill:rgb(135,109,232);"/>
        <path d="M1500,4500L2000,6000L0,4000L1500,4500Z" style="fill:rgb(249,105,255);"/>
        <path d="M0,2000L1500,1500L2000,0L0,2000Z" style="fill:rgb(132,195,255);"/>
    </g>
</svg>
